<?xml version="1.0" encoding="utf-8"?>
<!-- Generator: Adobe Illustrator 16.0.0, SVG Export Plug-In . SVG Version: 6.00 Build 0)  -->
<!DOCTYPE svg PUBLIC "-//W3C//DTD SVG 1.0//EN" "http://www.w3.org/TR/2001/REC-SVG-20010904/DTD/svg10.dtd">
<svg version="1.0" id="Layer_1" xmlns="http://www.w3.org/2000/svg" xmlns:xlink="http://www.w3.org/1999/xlink" x="0px" y="0px"
	 width="100px" height="100px" viewBox="0 0 100 100" enable-background="new 0 0 100 100" xml:space="preserve">
<path fill="#C68046" stroke="#3E2426" stroke-width="1.5" stroke-linecap="round" stroke-linejoin="round" stroke-miterlimit="10" d="
	M21.516,64.876c-7.376-7.376-7.376-19.334,0-26.715v-0.003c10.625-10.625,27.585-10.997,38.696-1.175
	c2.866-1.109,5.895-1.678,8.925-1.678l7.073,7.072c0,2.995-0.559,5.982-1.64,8.815c2.824,2.697,6.028,4.768,9.446,6.18
	c-1.13,2.729-2.794,5.285-5.013,7.5L21.516,64.876z"/>
<path fill="#AC713C" d="M80.169,55.444c-1.449,3.428-3.555,6.639-6.349,9.428h5.184c2.219-2.215,3.883-4.771,5.013-7.5
	C82.699,56.828,81.415,56.183,80.169,55.444z"/>
<path fill="#AC713C" d="M27.765,38.161v-0.003c4.722-4.723,10.696-7.414,16.852-8.091c-8.233-0.916-16.787,1.776-23.102,8.091v0.003
	c-7.376,7.38-7.376,19.339,0,26.715h6.25C20.389,57.499,20.389,45.542,27.765,38.161z"/>
<path fill="#F4F4F4" stroke="#3E2426" stroke-width="1.5" stroke-linecap="round" stroke-linejoin="round" stroke-miterlimit="10" d="
	M83.283,31.767c-0.979-0.975-2.561-0.975-3.539,0v0.004l0,0v-0.004c0.979-0.975,0.979-2.56,0.004-3.535
	c-0.979-0.978-2.563-0.978-3.538,0c-0.975,0.975-0.975,2.56,0,3.535l-5.306,5.306l3.535,3.534l5.305-5.306l0.004,0.004
	c0.975,0.975,2.557,0.975,3.535-0.004C84.258,34.327,84.258,32.742,83.283,31.767z"/>
<rect x="71.056" y="36.706" transform="matrix(0.7069 0.7073 -0.7073 0.7069 48.4054 -40.9013)" fill="#D3D4D5" width="4.999" height="2.501"/>
<path fill="none" stroke="#3E2426" stroke-width="1.5" stroke-linecap="round" stroke-linejoin="round" stroke-miterlimit="10" d="
	M38.382,61.864c-3.459-0.002-6.855-0.688-10.001-1.99c-3.607-1.496-5.321-5.633-3.826-9.236h-0.001
	c1.951-4.713,5.631-8.191,9.999-9.999c0.739,0.737,1.294,1.591,1.669,2.499c-1.919,1.922-3.105,4.571-3.105,7.5
	c1.919,1.918,4.57,3.104,7.5,3.104c-2.929,0-5.581-1.186-7.5-3.104c0-2.929,1.187-5.579,3.105-7.5
	c-0.375-0.907-0.93-1.762-1.669-2.499c-4.368,1.808-8.048,5.286-9.999,9.999h0.001c-1.495,3.604,0.219,7.74,3.826,9.236
	C31.527,61.177,34.923,61.862,38.382,61.864z"/>
<path fill="none" stroke="#3E2426" stroke-width="1.5" stroke-linecap="round" stroke-linejoin="round" stroke-miterlimit="10" d="
	M45.976,51.03c1.354-3.27,3.307-6.12,5.664-8.477c2.519-2.517,5.45-4.365,8.572-5.57c-3.122,1.205-6.054,3.053-8.572,5.57
	C49.282,44.911,47.33,47.76,45.976,51.03z"/>
<path fill="none" stroke="#3E2426" stroke-width="1.5" stroke-linecap="round" stroke-linejoin="round" stroke-miterlimit="10" d="
	M68.961,59.874c2.55-2.55,4.406-5.52,5.609-8.682C73.367,54.354,71.511,57.324,68.961,59.874z"/>
<path fill="none" stroke="#3E2426" stroke-width="1.5" stroke-linecap="round" stroke-linejoin="round" stroke-miterlimit="10" d="
	M12.5,64.876h75H12.5z"/>
<path fill="#FDBC32" stroke="#3E2426" stroke-width="1.5" stroke-linecap="round" stroke-linejoin="round" stroke-miterlimit="10" d="
	M14.999,64.872c7.188,0,13.696,2.914,18.407,7.628h33.188c4.714-4.714,11.218-7.628,18.408-7.628H14.999z"/>
<path fill="#DAA42C" d="M72.5,64.872c-7.188,0-13.693,2.914-18.408,7.628h12.502c4.714-4.714,11.218-7.628,18.408-7.628H72.5z"/>
<path fill="none" stroke="#3E2426" stroke-width="1.5" stroke-linecap="round" stroke-linejoin="round" stroke-miterlimit="10" d="
	M21.516,64.876c-7.376-7.376-7.376-19.334,0-26.715v-0.003c10.625-10.625,27.585-10.997,38.696-1.175
	c2.866-1.109,5.895-1.678,8.925-1.678l7.073,7.072c0,2.995-0.559,5.982-1.64,8.815c2.824,2.697,6.028,4.768,9.446,6.18
	c-1.13,2.729-2.794,5.285-5.013,7.5L21.516,64.876z"/>
<path fill="none" stroke="#3E2426" stroke-width="1.5" stroke-linecap="round" stroke-linejoin="round" stroke-miterlimit="10" d="
	M83.283,31.767c-0.979-0.975-2.561-0.975-3.539,0v0.004l0,0v-0.004c0.979-0.975,0.979-2.56,0.004-3.535
	c-0.979-0.978-2.563-0.978-3.538,0c-0.975,0.975-0.975,2.56,0,3.535l-5.306,5.306l3.535,3.534l5.305-5.306l0.004,0.004
	c0.975,0.975,2.557,0.975,3.535-0.004C84.258,34.327,84.258,32.742,83.283,31.767z"/>
<path fill="none" stroke="#3E2426" stroke-width="1.5" stroke-linecap="round" stroke-linejoin="round" stroke-miterlimit="10" d="
	M14.999,64.872c7.188,0,13.696,2.914,18.407,7.628h33.188c4.714-4.714,11.218-7.628,18.408-7.628H14.999z"/>
</svg>
