<?xml version="1.0" encoding="utf-8"?>
<!-- Generator: Adobe Illustrator 16.0.0, SVG Export Plug-In . SVG Version: 6.00 Build 0)  -->
<!DOCTYPE svg PUBLIC "-//W3C//DTD SVG 1.0//EN" "http://www.w3.org/TR/2001/REC-SVG-20010904/DTD/svg10.dtd">
<svg version="1.0" id="Layer_1" xmlns="http://www.w3.org/2000/svg" xmlns:xlink="http://www.w3.org/1999/xlink" x="0px" y="0px"
	 width="100px" height="100px" viewBox="0 0 100 100" enable-background="new 0 0 100 100" xml:space="preserve">
<path fill="#FDBC32" stroke="#3E2426" stroke-width="1.5" stroke-linecap="round" stroke-linejoin="round" stroke-miterlimit="10" d="
	M53.813,76.536c0-1.164,0.234-2.384,0.652-3.39c0.434-1.054,1.068-1.995,1.859-2.784h0.014c0.789-0.79,1.734-1.427,2.781-1.86
	c2.91-1.209,5.535-2.974,7.734-5.164l0.045-0.008c2.193-2.191,3.958-4.822,5.165-7.737c1.168-2.808,1.818-5.884,1.818-9.114H26.118
	c0,3.23,0.65,6.307,1.815,9.114c1.205,2.915,2.97,5.546,5.167,7.737l0.045,0.008c2.198,2.19,4.82,3.955,7.732,5.164
	c1.047,0.434,1.991,1.07,2.783,1.86h0.014c0.789,0.789,1.423,1.73,1.857,2.784c0.42,1.006,0.654,2.226,0.654,3.39
	c0,5.857-4.754,10.607-10.615,10.607h28.86C58.564,87.144,53.813,82.394,53.813,76.536z"/>
<path fill="#DAA42C" d="M27.934,55.593c1.205,2.915,2.97,5.546,5.167,7.737l0.045,0.008c2.198,2.19,4.82,3.955,7.732,5.164
	c1.047,0.434,1.991,1.07,2.783,1.86h0.014c0.6,0.6,1.108,1.288,1.509,2.046c1.562,0.29,3.169,0.448,4.813,0.448
	c1.644,0,3.253-0.158,4.816-0.449c0.4-0.757,0.91-1.445,1.512-2.045h0.014c0.789-0.79,1.734-1.427,2.781-1.86
	c2.91-1.209,5.535-2.974,7.734-5.164l0.045-0.008c2.193-2.191,3.958-4.822,5.165-7.737c1.168-2.808,1.818-5.884,1.818-9.114H26.118
	C26.118,49.709,26.769,52.785,27.934,55.593z"/>
<path fill="#FDBC32" stroke="#3E2426" stroke-width="1.5" stroke-linecap="round" stroke-linejoin="round" stroke-miterlimit="10" d="
	M73.882,46.479c0,13.186-10.694,23.878-23.885,23.878c-13.189,0-23.878-10.692-23.878-23.878H73.882z"/>
<path fill="#DAA42C" d="M66.381,46.479c0,11.91-8.725,21.781-20.133,23.582c1.221,0.192,2.473,0.296,3.749,0.296
	c13.191,0,23.885-10.692,23.885-23.878H66.381z"/>
<path fill="#F4F4F4" stroke="#3E2426" stroke-width="1.5" stroke-linecap="round" stroke-linejoin="round" stroke-miterlimit="10" d="
	M71.587,46.479c0-6.371-1.273-12.438-3.573-17.974c-2.377-5.747-5.859-10.918-10.188-15.242v-0.021
	c-1.016-1.02-2.238-1.836-3.592-2.401C52.924,10.3,51.502,10,50,10c-1.502,0-2.928,0.3-4.237,0.841
	c-1.351,0.565-2.57,1.381-3.59,2.401l-0.003,0.021c-4.325,4.324-7.804,9.495-10.181,15.242c-2.302,5.536-3.579,11.603-3.579,17.974
	H71.587z"/>
<path fill="#D3D4D5" d="M68.014,28.504c-2.377-5.747-5.859-10.918-10.188-15.242v-0.021c-1.016-1.02-2.238-1.836-3.592-2.401
	C52.924,10.3,51.502,10,50,10c-1.32,0-2.577,0.244-3.752,0.667c0.162,0.058,0.328,0.108,0.486,0.174
	c1.354,0.565,2.577,1.381,3.593,2.401v0.021c4.328,4.324,7.81,9.495,10.187,15.242c2.299,5.536,3.572,11.603,3.572,17.974h7.501
	C71.587,40.107,70.313,34.041,68.014,28.504z"/>
<rect x="35.571" y="87.144" fill="#FDBC32" stroke="#3E2426" stroke-width="1.5" stroke-linecap="round" stroke-linejoin="round" stroke-miterlimit="10" width="28.86" height="2.856"/>
<rect x="56.932" y="87.144" fill="#DAA42C" width="7.5" height="2.856"/>
<path fill="#FFFFFF" stroke="#3E2426" stroke-width="1.5" stroke-linecap="round" stroke-linejoin="round" stroke-miterlimit="10" d="
	M65.631,23.64l-4.744-1.55l-2.859,5.054l-3.742-5.392l-3.482,4.537l-2.233-2.132l-4.285,4.417l-2.856-8.502l-7.059,3.576
	c2.125-3.814,4.736-7.321,7.8-10.384l0.003-0.021c1.02-1.02,2.239-1.836,3.59-2.401C47.072,10.3,48.498,10,50,10
	c1.502,0,2.924,0.3,4.235,0.841c1.354,0.565,2.576,1.381,3.592,2.401v0.021C60.891,16.325,63.504,19.826,65.631,23.64z"/>
<path fill="#DBDCDD" d="M57.826,13.263v-0.021c-1.016-1.02-2.238-1.836-3.592-2.401C52.924,10.3,51.502,10,50,10
	c-0.862,0-1.695,0.109-2.5,0.295c0.596,0.139,1.178,0.315,1.735,0.545c1.353,0.565,2.578,1.381,3.593,2.401v0.021
	c2.918,2.917,5.414,6.24,7.482,9.844l0.576-1.018l4.744,1.55C63.504,19.826,60.891,16.325,57.826,13.263z"/>
<path fill="none" stroke="#3E2426" stroke-width="1.5" stroke-linecap="round" stroke-linejoin="round" stroke-miterlimit="10" d="
	M53.813,76.536c0-1.164,0.234-2.384,0.652-3.39c0.434-1.054,1.068-1.995,1.859-2.784h0.014c0.789-0.79,1.734-1.427,2.781-1.86
	c2.91-1.209,5.535-2.974,7.734-5.164l0.045-0.008c2.193-2.191,3.958-4.822,5.165-7.737c1.168-2.808,1.818-5.884,1.818-9.114H26.118
	c0,3.23,0.65,6.307,1.815,9.114c1.205,2.915,2.97,5.546,5.167,7.737l0.045,0.008c2.198,2.19,4.82,3.955,7.732,5.164
	c1.047,0.434,1.991,1.07,2.783,1.86h0.014c0.789,0.789,1.423,1.73,1.857,2.784c0.42,1.006,0.654,2.226,0.654,3.39
	c0,5.857-4.754,10.607-10.615,10.607h28.86C58.564,87.144,53.813,82.394,53.813,76.536z"/>
<path fill="none" stroke="#3E2426" stroke-width="1.5" stroke-linecap="round" stroke-linejoin="round" stroke-miterlimit="10" d="
	M73.882,46.479c0,13.186-10.694,23.878-23.885,23.878c-13.189,0-23.878-10.692-23.878-23.878H73.882z"/>
<rect x="35.571" y="87.144" fill="none" stroke="#3E2426" stroke-width="1.5" stroke-linecap="round" stroke-linejoin="round" stroke-miterlimit="10" width="28.86" height="2.856"/>
<path fill="none" stroke="#3E2426" stroke-width="1.5" stroke-linecap="round" stroke-linejoin="round" stroke-miterlimit="10" d="
	M71.587,46.479c0-6.371-1.273-12.438-3.573-17.974c-2.377-5.747-5.859-10.918-10.188-15.242v-0.021
	c-1.016-1.02-2.238-1.836-3.592-2.401C52.924,10.3,51.502,10,50,10c-1.502,0-2.928,0.3-4.237,0.841
	c-1.351,0.565-2.57,1.381-3.59,2.401l-0.003,0.021c-4.325,4.324-7.804,9.495-10.181,15.242c-2.302,5.536-3.579,11.603-3.579,17.974
	H71.587z"/>
<path fill="none" stroke="#3E2426" stroke-width="1.5" stroke-linecap="round" stroke-linejoin="round" stroke-miterlimit="10" d="
	M65.631,23.64l-4.744-1.55l-2.859,5.054l-3.742-5.392l-3.482,4.537l-2.233-2.132l-4.285,4.417l-2.856-8.502l-7.059,3.576
	c2.125-3.814,4.736-7.321,7.8-10.384l0.003-0.021c1.02-1.02,2.239-1.836,3.59-2.401C47.072,10.3,48.498,10,50,10
	c1.502,0,2.924,0.3,4.235,0.841c1.354,0.565,2.576,1.381,3.592,2.401v0.021C60.891,16.325,63.504,19.826,65.631,23.64z"/>
</svg>
