<?xml version="1.0" encoding="UTF-8"?>
<!DOCTYPE svg PUBLIC "-//W3C//DTD SVG 1.1//EN" "http://www.w3.org/Graphics/SVG/1.1/DTD/svg11.dtd">
<!-- Creator: CorelDRAW -->
<svg xmlns="http://www.w3.org/2000/svg" xml:space="preserve" width="2048px" height="2048px" style="shape-rendering:geometricPrecision; text-rendering:geometricPrecision; image-rendering:optimizeQuality; fill-rule:evenodd; clip-rule:evenodd"
viewBox="0 0 2048 2048"
 xmlns:xlink="http://www.w3.org/1999/xlink">
 <defs>
  <style type="text/css">
   <![CDATA[
    .fil1 {fill:none}
    .fil0 {fill:#424242}
   ]]>
  </style>
 </defs>
 <g id="Layer_x0020_1">
  <metadata id="CorelCorpID_0Corel-Layer"/>
  <g id="_283789416">
   <path id="_283795912" class="fil0" d="M968.229 548.666c267.077,0 483.585,216.508 483.585,483.585 0,267.076 -216.508,483.585 -483.585,483.585 -267.076,0 -483.585,-216.509 -483.585,-483.585 0,-267.077 216.509,-483.585 483.585,-483.585zm0 219.81c145.678,0 263.775,118.096 263.775,263.775 0,145.678 -118.096,263.775 -263.775,263.775 -145.678,0 -263.775,-118.096 -263.775,-263.775 0,-145.678 118.096,-263.775 263.775,-263.775z"/>
   <ellipse id="_283795856" class="fil0" cx="968.23" cy="1032.25" rx="225.673" ry="225.673"/>
   <path id="_283793336" class="fil0" d="M1629.13 451.904c89.9528,0 162.874,136.944 162.874,262.67 0,214.882 -325.748,214.882 -325.748,0 0,-125.726 72.9201,-262.67 162.874,-262.67z"/>
   <path id="_283792552" class="fil0" d="M1686.72 1548.1c0,26.3953 -25.9181,47.9965 -57.5977,47.9965l0 0c-31.6772,0 -57.5953,-21.5988 -57.5953,-47.9965 0,-297.127 34.5532,-485.496 34.5532,-773.76l46.0866 0c0,288.264 34.5532,476.633 34.5532,773.76z"/>
   <path id="_283791488" class="fil0" d="M397.168 1548.1c0,26.3953 -25.9181,47.9965 -57.5965,47.9965l0 0c-31.6772,0 -57.5953,-21.5988 -57.5953,-47.9965 0,-297.127 34.5532,-485.496 34.5532,-773.76l46.0855 0c0,288.264 34.5532,476.633 34.5532,773.76z"/>
   <path id="_283789360" class="fil0" d="M284.979 451.904c-66.6603,283.31 -5.55945,431.139 55.1457,430.283 60.3355,-0.850394 120.298,-148.69 54.0414,-430.283l-6.04489 283.902 -16.2165 0 -16.1705 -279.538 -9.66969 279.538 -12.9839 0 -9.67087 -279.538 -15.815 279.538 -16.5709 0 -6.04489 -283.902z"/>
  </g>
 </g>
 <rect class="fil1" width="2048" height="2048"/>
</svg>
