<svg xmlns="http://www.w3.org/2000/svg" viewBox="0 0 64 64"><g id="_23-mix" data-name="23-mix"><path d="M33,39.8C49,43.84,55,44,55,44a25.047,25.047,0,0,1-8.87,11.55A24.274,24.274,0,0,1,32,60C19.91,60,10,51,7,39a99.132,99.132,0,0,1,11-1h3A55.545,55.545,0,0,1,33,39.8Z" style="fill:#ffd28a"/><ellipse cx="32" cy="25" rx="31" ry="3" style="fill:#da684e"/><path d="M63,25v3l-2,4c-3,1-13.52,2-29,2S6,33,3,32L1,28V25c0,1.66,13.88,3,31,3S63,26.66,63,25Z" style="fill:#da684e"/><path d="M32,63C4,63,3,32,3,32c3,1,13.52,2,29,2s26-1,29-2C61,32,60,63,32,63ZM7,39c3,12,12.91,21,25,21a24.274,24.274,0,0,0,14.13-4.45A25.047,25.047,0,0,0,55,44s-6-.16-22-4.2A55.545,55.545,0,0,0,21,38H18A99.132,99.132,0,0,0,7,39Z" style="fill:#ede9e1"/><path d="M32,28c-.34,0-.67,0-1.01-.01C14.34,27.95,1,26.63,1,25v3l.145.291c1.475,1.493,14.2,2.661,29.845,2.7.34.01.67.01,1.01.01,16.129,0,29.377-1.19,30.858-2.715L63,28V25C63,26.66,49.12,28,32,28Z" style="fill:#f58569"/><path d="M3.88,26.264C8.807,27.29,19.542,28,32,28s23.193-.71,28.12-1.736C56.951,24.961,45.564,24,32,24S7.049,24.961,3.88,26.264Z" style="fill:#a34235"/><polygon points="41.44 22.74 39.35 24.82 37.96 23.43 37.26 22.74 36.57 22.04 35.18 20.65 37.26 18.56 41.44 22.74" style="fill:#918778"/><path d="M58.14,1.86a2.97,2.97,0,0,1,0,4.18l-16.7,16.7-4.18-4.18,16.7-16.7A2.963,2.963,0,0,1,58.14,1.86Z" style="fill:#da684e"/><path d="M56,30c0-.034-.009-.066-.01-.1A221.84,221.84,0,0,1,32,31c-.34,0-.67,0-1.01-.01A216.65,216.65,0,0,1,8.01,29.9c0,.033-.01.064-.01.1a3.972,3.972,0,0,0,1.474,3.078C14.649,33.612,22.362,34,32,34s17.351-.388,22.526-.922A3.972,3.972,0,0,0,56,30Z" style="fill:#bd4c3d"/><path d="M8.01,29.9A216.65,216.65,0,0,0,30.99,30.99c.34.01.67.01,1.01.01a221.84,221.84,0,0,0,23.99-1.1,3.973,3.973,0,0,0-1.314-2.854C49.017,27.633,40.954,28,32,28c-.34,0-.67,0-1.01-.01-8.55-.021-16.221-.379-21.667-.943A3.971,3.971,0,0,0,8.01,29.9Z" style="fill:#da684e"/><path d="M32,60a23.785,23.785,0,0,0,16.391-6.29A24.883,24.883,0,0,1,36,57h0A22,22,0,0,1,14.236,38.214C9.826,38.536,7,39,7,39,10,51,19.91,60,32,60Z" style="fill:#ffbb4a"/><path d="M48.391,53.71A23.785,23.785,0,0,1,32,60C19.91,60,10,51,7,39c0,0,2.826-.464,7.236-.786A22.126,22.126,0,0,1,14,35V33.457C8.426,33.075,4.615,32.538,3,32c0,0,1,31,29,31,18.888,0,25.483-14.1,27.78-23.281A25.063,25.063,0,0,1,48.391,53.71Z" style="fill:#ded9d0"/><path d="M36.415,19.409,35.18,20.65l1.39,1.39.69.7.7.69,1.39,1.39,2.09-2.08-2.523-2.523A2.987,2.987,0,0,1,36.415,19.409Z" style="fill:#544f43"/><path d="M58.14,1.86a3.009,3.009,0,0,0-.47-.38,1.993,1.993,0,0,1-.584,1.434L40.621,19.379a2.971,2.971,0,0,1-1.7.838L41.44,22.74l16.7-16.7a2.97,2.97,0,0,0,0-4.18Z" style="fill:#bd4c3d"/><path d="M55.251,34.228c-.793.438-.809,1.611-.967,2.43a19.683,19.683,0,0,1-.926,3.38,17.839,17.839,0,0,0-1.3,3.672C54.093,43.975,55,44,55,44c-.245.643-.518,1.269-.809,1.884a3.646,3.646,0,0,0,1.679-1.159,7.648,7.648,0,0,0,1.3-2.487,16.306,16.306,0,0,0,.82-3.99C58.1,36.8,57.393,33.043,55.251,34.228Z" style="fill:#f7f3eb"/><path d="M50.984,43.035a32.134,32.134,0,0,0,.97-3.6,1.416,1.416,0,0,0-.051-.891c-.575-1.086-2.312-.3-3,.221a11.887,11.887,0,0,0-2.2,2.687,8.272,8.272,0,0,0-.743,1.259c1.976.375,3.591.641,4.882.83C50.885,43.376,50.933,43.215,50.984,43.035Z" style="fill:#f7f3eb"/><path d="M52.057,43.71a5.068,5.068,0,0,0-.056.618,1.91,1.91,0,0,0,.252,1.115A1.468,1.468,0,0,0,53.57,46a2.583,2.583,0,0,0,.621-.113c.291-.615.564-1.241.809-1.884C55,44,54.093,43.975,52.057,43.71Z" style="fill:#ffebc2"/><path d="M44.018,47.364a.51.51,0,0,0,0,.263.448.448,0,0,0,.221.225,2.118,2.118,0,0,0,1.814-.164,19.537,19.537,0,0,0,3.241-1.781,3.269,3.269,0,0,0,1.217-1.43,7.529,7.529,0,0,0,.327-.936c-1.291-.189-2.906-.455-4.882-.83-.421.843-.769,1.748-1.156,2.563A8.765,8.765,0,0,0,44.018,47.364Z" style="fill:#ffebc2"/><circle cx="36" cy="44" r="1" style="fill:#ffedcf"/><circle cx="20" cy="46" r="1" style="fill:#ffedcf"/><circle cx="26" cy="48" r="1" style="fill:#ffbb4a"/><circle cx="35" cy="50" r="1" style="fill:#ffbb4a"/><circle cx="44" cy="52" r="1" style="fill:#ffedcf"/><circle cx="37" cy="54" r="1" style="fill:#ffbb4a"/><circle cx="33.5" cy="48.5" r="0.5" style="fill:#ffbb4a"/><circle cx="32.5" cy="53.5" r="0.5" style="fill:#ffbb4a"/><circle cx="40.5" cy="44.5" r="0.5" style="fill:#ffbb4a"/><circle cx="45.5" cy="49.5" r="0.5" style="fill:#ffedcf"/><circle cx="39.5" cy="47.5" r="0.5" style="fill:#ffbb4a"/><circle cx="29.5" cy="47.5" r="0.5" style="fill:#ffbb4a"/><circle cx="28.5" cy="41.5" r="0.5" style="fill:#ffedcf"/><circle cx="27.5" cy="52.5" r="0.5" style="fill:#ffedcf"/><circle cx="35.5" cy="46.5" r="0.5" style="fill:#ffbb4a"/><circle cx="22.5" cy="50.5" r="1.5" style="fill:#ffbb4a"/><path d="M49.555,17.363l-1.114,1.662A10.008,10.008,0,0,0,53.7,20.993,3.29,3.29,0,0,0,56.1,20.1a3.575,3.575,0,0,0,.828-3.255l-1.977.306a1.91,1.91,0,0,1-.267,1.535C54.059,19.315,52.093,19.063,49.555,17.363Z"/><path d="M59.227,9.582,57.4,10.4c.673,1.5.785,2.787.286,3.286s-2.012.483-4.2-.748l-.98,1.745A8.894,8.894,0,0,0,56.7,16.006a3.285,3.285,0,0,0,2.407-.9C60.261,13.943,60.305,11.982,59.227,9.582Z"/><path d="M46.049,21.323l-.1,2c8.884.436,13.357,1.158,15.2,1.686-2.7.778-10.291,1.629-21.565,1.9.3-.726.515-1.26.62-1.526L58.843,6.746a3.952,3.952,0,1,0-5.589-5.589l-.774.774C49.3-.181,46.407-.61,44.9.9s-1.081,4.379,1.039,7.578L43.671,10.74c-.769-1.641-.863-2.925-.362-3.426a.938.938,0,0,1,.186-.141l-.99-1.736a2.862,2.862,0,0,0-.608.46c-1.307,1.309-1.151,3.662.284,6.333l-7.564,7.564a101.742,101.742,0,0,0-14.388,6.981C11.249,26.415,5.181,25.681,2.836,25c2.5-.721,9.5-1.645,22.186-1.927l-.044-2C0,21.635,0,24.079,0,25v3a1,1,0,0,0,.105.447l1.908,3.814C2.188,35.143,4.654,64,32,64S61.812,35.143,61.987,32.261L63.9,28.447A1,1,0,0,0,64,28V25C64,24.023,64,22.205,46.049,21.323Zm-8.786-1.347,2.761,2.761-.673.673L36.59,20.649ZM31.588,27c-.564,0-1.117,0-1.667-.007,1.469-.893,2.875-1.709,4.048-2.374Zm3.8-.968q-.26.457-.547.958l-.413,0Zm1.773.928c.358-.633.674-1.2.93-1.666-.171.422-.4.987-.688,1.663ZM46.312,2.312c.628-.627,2.47-.334,4.719,1.068L47.38,7.031C45.939,4.717,45.721,2.9,46.312,2.312Zm-2.57,12.307,1.578-1.228c-.226-.291-.423-.575-.615-.857l9.963-9.963a1.952,1.952,0,1,1,2.761,2.761L41.438,21.323l-2.761-2.761,4.6-4.6C43.432,14.182,43.571,14.4,43.742,14.619Zm-9.037,7.3c-1.856,1.023-5.277,2.958-8.479,5.034q-1.142-.02-2.238-.048A114.058,114.058,0,0,1,34.705,21.914ZM60.3,31.166c-1.981.54-6.9,1.2-15.342,1.571l.088,2A105.735,105.735,0,0,0,59.9,33.314a42.562,42.562,0,0,1-3.8,13.75C51.305,56.975,43.2,62,32,62,20.826,62,12.727,56.993,7.927,47.119A42.643,42.643,0,0,1,4.1,33.315a78.729,78.729,0,0,0,9.978,1.156A8.2,8.2,0,0,0,14,35.747a10.612,10.612,0,0,0,.151,1.471c-4.364.319-7.169.771-7.315.795a1,1,0,0,0-.809,1.229C9.232,52.053,19.912,61,32,61A25.09,25.09,0,0,0,53.274,49.551l-1.67-1.1A23.121,23.121,0,0,1,32,59C21.169,59,11.548,51.172,8.259,39.828,9.962,39.6,13.517,39.183,18,39h2.974a54.611,54.611,0,0,1,11.781,1.766c11.811,2.982,18.187,3.866,20.795,4.127-.249.558-.517,1.1-.8,1.634l1.764.946a27.311,27.311,0,0,0,1.421-3.116A1,1,0,0,0,55.028,43c-.059,0-6.022-.223-21.3-4.054.7-1.165,1.421-2.494,2.168-3.969,1.057-.012,2.1-.028,3.123-.049l-.042-2C36.734,32.976,34.386,33,32,33c-15.08,0-25.047-.932-28.3-1.838L2,27.764v-.952a41.076,41.076,0,0,0,7.983,1.3c3.1.3,6.737.526,10.694.676l.029.044.065-.041c3.538.132,7.324.2,11.229.2,8.312,0,16.131-.313,22.017-.883A41.076,41.076,0,0,0,62,26.812v.952Zm-28.618,7.3c-.559-.128-1.126-.27-1.674-.381Q31.039,36.774,32.238,35c.473,0,.936-.005,1.406-.007Q32.623,36.944,31.681,38.469Zm-3.927-.78c-1.211-.2-2.4-.365-3.551-.478l2.255-2.255c1.086.017,2.212.028,3.363.035C29.067,36.062,28.38,36.952,27.754,37.689Zm-6.2-.656c-.182-.007-.373-.028-.553-.033H18.392a11.616,11.616,0,0,1,1.446-2.228c1.23.049,2.5.093,3.848.127Zm-5.361.054-.026,0a8.664,8.664,0,0,1-.163-1.4,6.177,6.177,0,0,1,.079-1.1c.438.025.892.048,1.349.071A10.611,10.611,0,0,0,16.192,37.087Z"/><path d="M40.973,32.879l.054,2q1.026-.029,2.009-.065l-.072-2Q41.989,32.852,40.973,32.879Z"/></g></svg>